#!OML:ASF G:\ViconDB\ViconDB\414\test\team2\shane.ASF
:FULLY-SPECIFIED
:DEGREES
161
root 0.390124 16.7112 -4.251 -8.50153 -0.814171 -5.81297
lowerback 8.5515 1.73193 4.84026
upperback 3.95854 2.71074 2.68035
thorax -0.590313 1.38946 -0.184282
lowerneck -13.1496 -3.38707 -5.83278
upperneck 17.6744 -5.16871 8.79665
head 8.0144 -2.0128 3.33219
rclavicle -3.30604e-014 -5.1684e-015
rhumerus -20.7156 0.0109079 -92.0483
rradius 23.4437
rwrist 44.6044
rhand -29.7356 -15.0939
rfingers 7.12502
rthumb -3.06214 -45.0517
lclavicle -3.30604e-014 -5.1684e-015
lhumerus -35.3322 -5.89603 87.54
lradius 16.814
lwrist -24.6899
lhand -37.238 6.59113
lfingers 7.12502
lthumb -10.3043 36.3187
rfemur 11.7383 -20.7972 19.4008
rtibia 22.27
rfoot -25.2106 14.1238
rtoes -4.735
lfemur -10.7281 8.65118 -5.15906
ltibia 51.9156
lfoot -24.962 -13.8597
ltoes -13.0991
162
root 0.387407 16.7141 -4.06574 -8.34361 -1.22282 -5.78638
lowerback 8.56637 1.96693 5.01805
upperback 3.85575 3.04058 2.58701
thorax -0.677492 1.55359 -0.409844
lowerneck -13.0753 -3.38373 -5.64361
upperneck 17.6056 -5.17355 8.65551
head 7.9699 -2.01835 3.25198
rclavicle -4.32854e-014 -3.77691e-014
rhumerus -19.9623 1.29716 -92.6051
rradius 24.0717
rwrist 43.5664
rhand -29.8189 -14.9832
rfingers 7.12502
rthumb -3.14257 -44.9398
lclavicle -4.32854e-014 -3.77691e-014
lhumerus -36.3644 -5.86866 86.9496
lradius 16.5383
lwrist -24.7405
lhand -36.8536 6.61002
lfingers 7.12502
lthumb -9.93344 36.3556
rfemur 12.7928 -20.3834 19.2739
rtibia 21.1145
rfoot -25.0441 14.0611
rtoes -5.59435
lfemur -11.5797 8.91817 -5.51892
ltibia 49.7149
lfoot -25.3675 -13.1606
ltoes -12.8586
163
root 0.385105 16.7175 -3.87912 -8.2038 -1.32792 -5.69923
lowerback 8.5403 2.09218 5.10596
upperback 3.80269 3.21176 2.43134
thorax -0.696566 1.64 -0.633418
lowerneck -13.0781 -3.45736 -5.49198
upperneck 17.4734 -5.30363 8.68269
head 7.9341 -2.06923 3.21919
rclavicle -2.52829e-014 -7.95139e-015
rhumerus -19.1306 2.25833 -93.2838
rradius 24.8453
rwrist 42.4089
rhand -29.9436 -15.3419
rfingers 7.12502
rthumb -3.26303 -45.2967
lclavicle -2.52829e-014 -7.95139e-015
lhumerus -37.3535 -6.2665 86.4738
lradius 16.4839
lwrist -24.1375
lhand -36.5273 6.86837
lfingers 7.12502
lthumb -9.61863 36.6288
rfemur 13.9285 -20.0392 19.0759
rtibia 19.8678
rfoot -24.6076 13.8626
rtoes -6.71319
lfemur -12.4615 9.04919 -5.89855
ltibia 47.4063
lfoot -25.4701 -13.2069
ltoes -12.6851
164
root 0.385831 16.7168 -3.69046 -8.03359 -1.56168 -5.67098
lowerback 8.47059 2.19535 5.11033
upperback 3.72967 3.34684 2.3912
thorax -0.724851 1.70605 -0.687224
lowerneck -13.043 -3.41517 -5.47617
upperneck 17.3876 -5.24893 8.70996
head 7.89549 -2.0419 3.23123
rclavicle 5.43552e-015 4.57205e-015
rhumerus -18.4253 3.72164 -93.8709
rradius 25.6166
rwrist 40.8421
rhand -30.0486 -15.0109
rfingers 7.12502
rthumb -3.36443 -44.964
lclavicle 5.43552e-015 4.57205e-015
lhumerus -38.3265 -5.53389 85.5746
lradius 16.1614
lwrist -24.7322
lhand -36.2234 6.83616
lfingers 7.12502
lthumb -9.32539 36.6099
rfemur 15.1123 -19.5633 18.9839
rtibia 18.3681
rfoot -24.319 13.5667
rtoes -7.99736
lfemur -13.2577 9.22152 -6.32144
ltibia 44.9562
lfoot -25.9078 -12.7333
ltoes -12.7175
165
root 0.393856 16.715 -3.5012 -7.83112 -1.8375 -5.71836
lowerback 8.49034 2.36241 5.4931
upperback 3.56825 3.60495 2.26592
thorax -0.857226 1.83357 -1.05486
lowerneck -12.9367 -3.46792 -5.48799
upperneck 17.3489 -5.34706 8.84311
head 7.87552 -2.08 3.26742
rclavicle 4.01297e-014 2.21645e-014
rhumerus -17.867 5.08109 -94.3712
rradius 26.3776
rwrist 39.6397
rhand -30.1559 -15.1451
rfingers 7.12502
rthumb -3.46803 -45.0966
lclavicle 4.01297e-014 2.21645e-014
lhumerus -39.2771 -5.31148 84.754
lradius 15.7539
lwrist -25.0179
lhand -36.112 6.68401
lfingers 7.12502
lthumb -9.21784 36.4625
rfemur 16.3679 -19.3512 18.8517
rtibia 16.6322
rfoot -23.6462 13.6905
rtoes -9.03172
lfemur -14.0598 9.65334 -6.64663
ltibia 42.4821
lfoot -26.275 -12.7054
ltoes -12.9396
166
root 0.393999 16.718 -3.3067 -7.65499 -1.95888 -5.75755
lowerback 8.38613 2.48585 5.60336
upperback 3.48644 3.77281 2.2214
thorax -0.864412 1.91703 -1.17234
lowerneck -12.9096 -3.43887 -5.38134
upperneck 17.2739 -5.31275 8.78542
head 7.8388 -2.0638 3.23338
rclavicle -4.34469e-014 -1.39149e-014
rhumerus -17.2191 5.7035 -94.6734
rradius 27.1155
rwrist 39.3594
rhand -30.1864 -14.7339
rfingers 7.12502
rthumb -3.49743 -44.6849
lclavicle -4.34469e-014 -1.39149e-014
lhumerus -40.1559 -5.16068 84.0885
lradius 15.4363
lwrist -25.0662
lhand -36.0123 6.76646
lfingers 7.12502
lthumb -9.12171 36.5492
rfemur 17.7995 -18.9171 18.8336
rtibia 14.6476
rfoot -22.7505 13.5111
rtoes -9.46551
lfemur -14.8567 9.87157 -6.91949
ltibia 39.9849
lfoot -26.4533 -13.194
ltoes -12.6882
167
root 0.406467 16.7173 -3.10864 -7.54926 -2.0412 -5.81517
lowerback 8.34463 2.56561 5.92328
upperback 3.38518 3.90258 2.08264
thorax -0.906136 1.98232 -1.50309
lowerneck -12.7947 -3.5102 -5.34613
upperneck 17.1672 -5.44043 8.91337
head 7.79602 -2.11501 3.25591
rclavicle -5.76289e-014 -1.92821e-014
rhumerus -16.8135 7.23724 -95.1805
rradius 28.2125
rwrist 37.323
rhand -30.2315 -14.6627
rfingers 7.12502
rthumb -3.54102 -44.613
lclavicle -5.76289e-014 -1.92821e-014
lhumerus -41.0875 -4.54884 83.0884
lradius 15.1256
lwrist -25.5374
lhand -36.0645 7.06706
lfingers 7.12502
lthumb -9.17205 36.8476
rfemur 19.5941 -18.687 18.6659
rtibia 12.1162
rfoot -21.8074 13.5024
rtoes -10.0207
lfemur -15.5598 9.91221 -7.24987
ltibia 37.5905
lfoot -26.6906 -13.518
ltoes -12.7087
168
root 0.4069 16.7172 -2.91088 -7.28152 -2.10394 -6.0158
lowerback 8.1753 2.64427 6.10144
upperback 3.26061 4.01396 2.10043
thorax -0.922746 2.03631 -1.58649
lowerneck -12.8619 -3.44572 -5.09396
upperneck 17.2071 -5.3568 8.67427
head 7.80111 -2.07828 3.14267
rclavicle -3.34983e-014 8.49804e-015
rhumerus -16.3673 8.59827 -95.4102
rradius 29.0718
rwrist 36.9498
rhand -30.2619 -14.7832
rfingers 7.12502
rthumb -3.57035 -44.733
lclavicle -3.34983e-014 8.49804e-015
lhumerus -41.9601 -4.64784 82.5644
lradius 14.8124
lwrist -25.1043
lhand -36.1198 6.98032
lfingers 7.12502
lthumb -9.22543 36.7585
rfemur 21.5258 -18.211 18.8613
rtibia 8.74164
rfoot -20.2108 13.2858
rtoes -10.5027
lfemur -16.4734 10.1143 -7.41692
ltibia 35.3677
lfoot -26.8803 -13.9052
ltoes -13.2041
169
root 0.415215 16.718 -2.71035 -7.05824 -2.07274 -6.15776
lowerback 8.02664 2.71605 6.31521
upperback 3.11148 4.12135 2.10742
thorax -0.972461 2.08701 -1.70193
lowerneck -12.6946 -3.53056 -5.23267
upperneck 17.1143 -5.45748 8.74339
head 7.75387 -2.13461 3.17846
rclavicle 4.93234e-014 8.29926e-015
rhumerus -16.0355 9.92908 -95.6288
rradius 30.0127
rwrist 35.5396
rhand -30.5304 -14.6531
rfingers 7.12502
rthumb -3.82963 -44.5984
lclavicle 4.93234e-014 8.29926e-015
lhumerus -42.6507 -3.38849 81.2011
lradius 14.2033
lwrist -26.5323
lhand -36.1826 7.15931
lfingers 7.12502
lthumb -9.28602 36.9348
rfemur 25.0371 -17.8107 18.9903
rtibia 2.0042
rfoot -16.667 13.1228
rtoes -10.7533
lfemur -17.4633 10.12 -7.60081
ltibia 33.453
lfoot -26.7979 -14.4243
ltoes -14.098
170
root 0.417411 16.7063 -2.51139 -6.93271 -2.09877 -6.37495
lowerback 8.02433 2.78738 6.54869
upperback 3.00403 4.23849 2.07163
thorax -1.05344 2.14237 -1.87977
lowerneck -12.7047 -3.54736 -5.07114
upperneck 17.1018 -5.51126 8.73562
head 7.75132 -2.1502 3.14257
rclavicle -4.72005e-014 1.59028e-015
rhumerus -15.7817 10.8945 -95.8873
rradius 30.9508
rwrist 35.2904
rhand -30.8164 -14.7049
rfingers 7.12502
rthumb -4.10585 -44.645
lclavicle -4.72005e-014 1.59028e-015
lhumerus -43.3249 -3.41697 80.4892
lradius 13.854
lwrist -26.2796
lhand -36.0505 7.03935
lfingers 7.12502
lthumb -9.15854 36.8205
rfemur 26.5278 -17.3699 19.1953
rtibia 4.13472e-014
rfoot -15.9227 12.6366
rtoes -11.1309
lfemur -18.3724 10.5691 -7.74537
ltibia 31.9087
lfoot -27.0872 -14.6862
ltoes -14.7674
171
root 0.430455 16.7034 -2.30801 -6.79424 -2.20304 -6.74539
lowerback 7.95921 2.81791 6.95075
upperback 2.92212 4.30921 2.14387
thorax -1.07127 2.17684 -2.03071
lowerneck -12.8036 -3.49779 -5.00335
upperneck 17.1554 -5.43891 8.64184
head 7.77662 -2.11649 3.10749
rclavicle -3.51569e-014 -2.60905e-015
rhumerus -15.4068 11.9161 -96.011
rradius 31.8132
rwrist 34.7429
rhand -30.7767 -14.5958
rfingers 7.12502
rthumb -4.06751 -44.5367
lclavicle -3.51569e-014 -2.60905e-015
lhumerus -43.9572 -2.73478 79.4324
lradius 13.3174
lwrist -27.0391
lhand -36.0326 7.31793
lfingers 7.12502
lthumb -9.14127 37.0998
rfemur 27.0887 -16.8574 19.5303
rtibia -3.81667e-014
rfoot -16.0359 12.308
rtoes -12.0324
lfemur -19.4328 11.2023 -7.71325
ltibia 30.8428
lfoot -26.9842 -15.6205
ltoes -13.8014
